<svg xmlns="http://www.w3.org/2000/svg" width="1080" height="1440" viewBox="0 0 1080 1440">
<rect width="100%" height="100%" fill="#f0f1f3"/>
<text x="30" y="44" font-family="Inter,Arial,sans-serif" font-size="24" font-weight="600" fill="#20252b">orhan-metre / Kompakt mobil arayüz</text>
<text x="30" y="70" font-family="Inter,Arial,sans-serif" font-size="13" font-weight="400" fill="#707984">Örnek verilerle tasarım çizimi · 4–6 px köşeler · düz listeler · 44 px dokunma alanları</text>
<rect x="30" y="95" width="320" height="610" rx="6" fill="#fff" stroke="#d9dde2"/>
<text x="46" y="118" font-family="Inter,Arial,sans-serif" font-size="11" font-weight="600" fill="#20252b">9:41</text>
<rect x="296" y="110" width="3" height="5" rx="0" fill="#707984"/>
<rect x="302" y="107" width="3" height="8" rx="0" fill="#707984"/>
<rect x="308" y="104" width="3" height="11" rx="0" fill="#707984"/>
<rect x="320" y="105" width="14" height="8" rx="0" fill="#fff" stroke="#707984"/>
<rect x="322" y="107" width="9" height="4" rx="0" fill="#707984"/>
<text x="46" y="161" font-family="Inter,Arial,sans-serif" font-size="18" font-weight="600" fill="#20252b">Projeler</text>
<text x="314" y="161" font-family="Inter,Arial,sans-serif" font-size="20" font-weight="400" fill="#707984">+</text>
<rect x="30" y="183" width="320" height="1" rx="0" fill="#e7e9ec"/>
<rect x="30" y="651" width="320" height="1" rx="0" fill="#e7e9ec"/>
<text x="46" y="680" font-family="Inter,Arial,sans-serif" font-size="17" font-weight="400" fill="#2664d9">□</text>
<text x="39" y="697" font-family="Inter,Arial,sans-serif" font-size="10" font-weight="400" fill="#2664d9">Projeler</text>
<text x="107" y="680" font-family="Inter,Arial,sans-serif" font-size="17" font-weight="400" fill="#707984">□</text>
<text x="100" y="697" font-family="Inter,Arial,sans-serif" font-size="10" font-weight="400" fill="#707984">Takvim</text>
<text x="168" y="680" font-family="Inter,Arial,sans-serif" font-size="17" font-weight="400" fill="#707984">○</text>
<text x="161" y="697" font-family="Inter,Arial,sans-serif" font-size="10" font-weight="400" fill="#707984">Odak</text>
<text x="229" y="680" font-family="Inter,Arial,sans-serif" font-size="17" font-weight="400" fill="#707984">≡</text>
<text x="222" y="697" font-family="Inter,Arial,sans-serif" font-size="10" font-weight="400" fill="#707984">Raporlar</text>
<text x="290" y="680" font-family="Inter,Arial,sans-serif" font-size="17" font-weight="400" fill="#707984">○</text>
<text x="283" y="697" font-family="Inter,Arial,sans-serif" font-size="10" font-weight="400" fill="#707984">Ayarlar</text>
<text x="44" y="207" font-family="Inter,Arial,sans-serif" font-size="12" font-weight="400" fill="#707984">4 proje · 12 açık görev</text>
<rect x="44" y="223" width="292" height="40" rx="4" fill="#fff" stroke="#d9dde2"/>
<text x="56" y="246" font-family="Inter,Arial,sans-serif" font-size="12" font-weight="400" fill="#707984">Projelerinde ara…</text>
<rect x="44" y="285" width="4" height="24" rx="1" fill="#2664d9"/>
<text x="60" y="294" font-family="Inter,Arial,sans-serif" font-size="14" font-weight="600" fill="#20252b">Matematik</text>
<text x="60" y="314" font-family="Inter,Arial,sans-serif" font-size="11" font-weight="400" fill="#707984">5 açık görev · 2 sa 15 dk</text>
<text x="315" y="305" font-family="Inter,Arial,sans-serif" font-size="20" font-weight="400" fill="#707984">›</text>
<rect x="44" y="331" width="292" height="1" rx="0" fill="#e7e9ec"/>
<rect x="44" y="349" width="4" height="24" rx="1" fill="#aab1b9"/>
<text x="60" y="358" font-family="Inter,Arial,sans-serif" font-size="14" font-weight="600" fill="#20252b">  Analiz</text>
<text x="60" y="378" font-family="Inter,Arial,sans-serif" font-size="11" font-weight="400" fill="#707984">2 açık görev</text>
<text x="315" y="369" font-family="Inter,Arial,sans-serif" font-size="20" font-weight="400" fill="#707984">›</text>
<rect x="44" y="395" width="292" height="1" rx="0" fill="#e7e9ec"/>
<rect x="44" y="413" width="4" height="24" rx="1" fill="#aab1b9"/>
<text x="60" y="422" font-family="Inter,Arial,sans-serif" font-size="14" font-weight="600" fill="#20252b">İngilizce</text>
<text x="60" y="442" font-family="Inter,Arial,sans-serif" font-size="11" font-weight="400" fill="#707984">4 açık görev · 45 dk</text>
<text x="315" y="433" font-family="Inter,Arial,sans-serif" font-size="20" font-weight="400" fill="#707984">›</text>
<rect x="44" y="459" width="292" height="1" rx="0" fill="#e7e9ec"/>
<rect x="44" y="477" width="4" height="24" rx="1" fill="#aab1b9"/>
<text x="60" y="486" font-family="Inter,Arial,sans-serif" font-size="14" font-weight="600" fill="#20252b">Kişisel</text>
<text x="60" y="506" font-family="Inter,Arial,sans-serif" font-size="11" font-weight="400" fill="#707984">3 açık görev</text>
<text x="315" y="497" font-family="Inter,Arial,sans-serif" font-size="20" font-weight="400" fill="#707984">›</text>
<rect x="44" y="523" width="292" height="1" rx="0" fill="#e7e9ec"/>
<rect x="380" y="95" width="320" height="610" rx="6" fill="#fff" stroke="#d9dde2"/>
<text x="396" y="118" font-family="Inter,Arial,sans-serif" font-size="11" font-weight="600" fill="#20252b">9:41</text>
<rect x="646" y="110" width="3" height="5" rx="0" fill="#707984"/>
<rect x="652" y="107" width="3" height="8" rx="0" fill="#707984"/>
<rect x="658" y="104" width="3" height="11" rx="0" fill="#707984"/>
<rect x="670" y="105" width="14" height="8" rx="0" fill="#fff" stroke="#707984"/>
<rect x="672" y="107" width="9" height="4" rx="0" fill="#707984"/>
<text x="396" y="161" font-family="Inter,Arial,sans-serif" font-size="18" font-weight="600" fill="#20252b">Odak</text>
<text x="664" y="161" font-family="Inter,Arial,sans-serif" font-size="20" font-weight="400" fill="#707984">↗</text>
<rect x="380" y="183" width="320" height="1" rx="0" fill="#e7e9ec"/>
<rect x="380" y="651" width="320" height="1" rx="0" fill="#e7e9ec"/>
<text x="396" y="680" font-family="Inter,Arial,sans-serif" font-size="17" font-weight="400" fill="#707984">□</text>
<text x="389" y="697" font-family="Inter,Arial,sans-serif" font-size="10" font-weight="400" fill="#707984">Projeler</text>
<text x="457" y="680" font-family="Inter,Arial,sans-serif" font-size="17" font-weight="400" fill="#707984">□</text>
<text x="450" y="697" font-family="Inter,Arial,sans-serif" font-size="10" font-weight="400" fill="#707984">Takvim</text>
<text x="518" y="680" font-family="Inter,Arial,sans-serif" font-size="17" font-weight="400" fill="#2664d9">○</text>
<text x="511" y="697" font-family="Inter,Arial,sans-serif" font-size="10" font-weight="400" fill="#2664d9">Odak</text>
<text x="579" y="680" font-family="Inter,Arial,sans-serif" font-size="17" font-weight="400" fill="#707984">≡</text>
<text x="572" y="697" font-family="Inter,Arial,sans-serif" font-size="10" font-weight="400" fill="#707984">Raporlar</text>
<text x="640" y="680" font-family="Inter,Arial,sans-serif" font-size="17" font-weight="400" fill="#707984">○</text>
<text x="633" y="697" font-family="Inter,Arial,sans-serif" font-size="10" font-weight="400" fill="#707984">Ayarlar</text>
<text x="394" y="206" font-family="Inter,Arial,sans-serif" font-size="11" font-weight="400" fill="#707984">BUGÜN     1 sa 20 dk odak    3 tur</text>
<rect x="394" y="223" width="292" height="1" rx="0" fill="#e7e9ec"/>
<text x="394" y="251" font-family="Inter,Arial,sans-serif" font-size="12" font-weight="400" fill="#707984">Proje</text>
<text x="519" y="252" font-family="Inter,Arial,sans-serif" font-size="13" font-weight="400" fill="#20252b">Matematik     ›</text>
<rect x="394" y="269" width="292" height="1" rx="0" fill="#e7e9ec"/>
<text x="394" y="295" font-family="Inter,Arial,sans-serif" font-size="12" font-weight="400" fill="#707984">Görev</text>
<text x="489" y="296" font-family="Inter,Arial,sans-serif" font-size="13" font-weight="400" fill="#20252b">Limit ve süreklilik  ›</text>
<rect x="394" y="313" width="292" height="1" rx="0" fill="#e7e9ec"/>
<text x="416" y="363" font-family="Inter,Arial,sans-serif" font-size="12" font-weight="400" fill="#2664d9">Odak</text>
<text x="512" y="363" font-family="Inter,Arial,sans-serif" font-size="12" font-weight="400" fill="#707984">Tekrar</text>
<text x="608" y="363" font-family="Inter,Arial,sans-serif" font-size="12" font-weight="400" fill="#707984">Nefes al</text>
<rect x="394" y="379" width="292" height="1" rx="0" fill="#e7e9ec"/>
<rect x="394" y="379" width="96" height="2" rx="0" fill="#2664d9"/>
<text x="522" y="416" font-family="Inter,Arial,sans-serif" font-size="12" font-weight="400" fill="#707984">Hazır</text>
<text x="440" y="494" font-family="Inter,Arial,sans-serif" font-size="64" font-weight="400" fill="#20252b">25:00</text>
<text x="460" y="519" font-family="Inter,Arial,sans-serif" font-size="11" font-weight="400" fill="#707984">14:32 · 5 Eylül Cumartesi</text>
<text x="504" y="562" font-family="Inter,Arial,sans-serif" font-size="12" font-weight="600" fill="#20252b">Standart</text>
<text x="423" y="584" font-family="Inter,Arial,sans-serif" font-size="11" font-weight="400" fill="#707984">25 dk odak · 5 dk tekrar · 5 dk mola</text>
<rect x="394" y="596" width="292" height="42" rx="4" fill="#2664d9"/>
<text x="406" y="621" font-family="Inter,Arial,sans-serif" font-size="13" font-weight="600" fill="#fff">▶  Odaklanmaya başla</text>
<rect x="730" y="95" width="320" height="610" rx="6" fill="#fff" stroke="#d9dde2"/>
<text x="746" y="118" font-family="Inter,Arial,sans-serif" font-size="11" font-weight="600" fill="#20252b">9:41</text>
<rect x="996" y="110" width="3" height="5" rx="0" fill="#707984"/>
<rect x="1002" y="107" width="3" height="8" rx="0" fill="#707984"/>
<rect x="1008" y="104" width="3" height="11" rx="0" fill="#707984"/>
<rect x="1020" y="105" width="14" height="8" rx="0" fill="#fff" stroke="#707984"/>
<rect x="1022" y="107" width="9" height="4" rx="0" fill="#707984"/>
<text x="746" y="161" font-family="Inter,Arial,sans-serif" font-size="18" font-weight="600" fill="#20252b">‹  Görev</text>
<text x="1014" y="161" font-family="Inter,Arial,sans-serif" font-size="20" font-weight="400" fill="#707984">···</text>
<rect x="730" y="183" width="320" height="1" rx="0" fill="#e7e9ec"/>
<rect x="744" y="200" width="16" height="16" rx="3" fill="#fff" stroke="#aab1b9"/>
<text x="773" y="214" font-family="Inter,Arial,sans-serif" font-size="19" font-weight="600" fill="#20252b">Limit ve süreklilik</text>
<text x="744" y="259" font-family="Inter,Arial,sans-serif" font-size="12" font-weight="400" fill="#707984">Proje</text>
<text x="899" y="260" font-family="Inter,Arial,sans-serif" font-size="13" font-weight="400" fill="#20252b">Matematik  ›</text>
<rect x="744" y="273" width="292" height="1" rx="0" fill="#e7e9ec"/>
<text x="744" y="299" font-family="Inter,Arial,sans-serif" font-size="12" font-weight="400" fill="#707984">Tarih</text>
<text x="918" y="300" font-family="Inter,Arial,sans-serif" font-size="13" font-weight="400" fill="#20252b">Bugün  ›</text>
<rect x="744" y="313" width="292" height="1" rx="0" fill="#e7e9ec"/>
<text x="744" y="345" font-family="Inter,Arial,sans-serif" font-size="13" font-weight="600" fill="#20252b">Not</text>
<text x="875" y="342" font-family="Inter,Arial,sans-serif" font-size="10" font-weight="400" fill="#707984">Otomatik kaydedilir</text>
<rect x="744" y="358" width="292" height="52" rx="4" fill="#f6f7f8"/>
<text x="754" y="383" font-family="Inter,Arial,sans-serif" font-size="12" font-weight="400" fill="#707984">Konu özeti ve örnek sorular.</text>
<text x="744" y="445" font-family="Inter,Arial,sans-serif" font-size="13" font-weight="600" fill="#20252b">Kontrol listesi</text>
<text x="1010" y="444" font-family="Inter,Arial,sans-serif" font-size="12" font-weight="400" fill="#707984">1/3</text>
<rect x="744" y="458" width="292" height="3" rx="0" fill="#e7e9ec"/>
<rect x="744" y="458" width="97" height="3" rx="0" fill="#2664d9"/>
<rect x="744" y="479" width="16" height="16" rx="3" fill="#2664d9" stroke="#2664d9"/>
<text x="747" y="490" font-family="Inter,Arial,sans-serif" font-size="13" font-weight="600" fill="#fff">✓</text>
<text x="772" y="490" font-family="Inter,Arial,sans-serif" font-size="13" font-weight="400" fill="#707984">Konu özetini oku</text>
<text x="1014" y="493" font-family="Inter,Arial,sans-serif" font-size="16" font-weight="400" fill="#707984">···</text>
<rect x="744" y="510" width="292" height="1" rx="0" fill="#e7e9ec"/>
<rect x="744" y="522" width="16" height="16" rx="3" fill="#fff" stroke="#aab1b9"/>
<text x="772" y="533" font-family="Inter,Arial,sans-serif" font-size="13" font-weight="400" fill="#20252b">10 örnek soru çöz</text>
<text x="1014" y="536" font-family="Inter,Arial,sans-serif" font-size="16" font-weight="400" fill="#707984">···</text>
<rect x="744" y="553" width="292" height="1" rx="0" fill="#e7e9ec"/>
<rect x="744" y="565" width="16" height="16" rx="3" fill="#fff" stroke="#aab1b9"/>
<text x="772" y="576" font-family="Inter,Arial,sans-serif" font-size="13" font-weight="400" fill="#20252b">Yanlışları gözden geçir</text>
<text x="1014" y="579" font-family="Inter,Arial,sans-serif" font-size="16" font-weight="400" fill="#707984">···</text>
<rect x="744" y="596" width="292" height="1" rx="0" fill="#e7e9ec"/>
<rect x="744" y="600" width="292" height="40" rx="4" fill="#fff" stroke="#d9dde2"/>
<text x="756" y="623" font-family="Inter,Arial,sans-serif" font-size="12" font-weight="400" fill="#707984">+  Kontrol maddesi ekle</text>
<rect x="744" y="645" width="292" height="42" rx="4" fill="#2664d9"/>
<text x="756" y="670" font-family="Inter,Arial,sans-serif" font-size="13" font-weight="600" fill="#fff">▶  Bu göreve odaklan</text>
<rect x="30" y="745" width="320" height="610" rx="6" fill="#fff" stroke="#d9dde2"/>
<text x="46" y="768" font-family="Inter,Arial,sans-serif" font-size="11" font-weight="600" fill="#20252b">9:41</text>
<rect x="296" y="760" width="3" height="5" rx="0" fill="#707984"/>
<rect x="302" y="757" width="3" height="8" rx="0" fill="#707984"/>
<rect x="308" y="754" width="3" height="11" rx="0" fill="#707984"/>
<rect x="320" y="755" width="14" height="8" rx="0" fill="#fff" stroke="#707984"/>
<rect x="322" y="757" width="9" height="4" rx="0" fill="#707984"/>
<text x="46" y="811" font-family="Inter,Arial,sans-serif" font-size="18" font-weight="600" fill="#20252b">Takvim</text>
<text x="314" y="811" font-family="Inter,Arial,sans-serif" font-size="20" font-weight="400" fill="#707984"></text>
<rect x="30" y="833" width="320" height="1" rx="0" fill="#e7e9ec"/>
<rect x="30" y="1301" width="320" height="1" rx="0" fill="#e7e9ec"/>
<text x="46" y="1330" font-family="Inter,Arial,sans-serif" font-size="17" font-weight="400" fill="#707984">□</text>
<text x="39" y="1347" font-family="Inter,Arial,sans-serif" font-size="10" font-weight="400" fill="#707984">Projeler</text>
<text x="107" y="1330" font-family="Inter,Arial,sans-serif" font-size="17" font-weight="400" fill="#2664d9">□</text>
<text x="100" y="1347" font-family="Inter,Arial,sans-serif" font-size="10" font-weight="400" fill="#2664d9">Takvim</text>
<text x="168" y="1330" font-family="Inter,Arial,sans-serif" font-size="17" font-weight="400" fill="#707984">○</text>
<text x="161" y="1347" font-family="Inter,Arial,sans-serif" font-size="10" font-weight="400" fill="#707984">Odak</text>
<text x="229" y="1330" font-family="Inter,Arial,sans-serif" font-size="17" font-weight="400" fill="#707984">≡</text>
<text x="222" y="1347" font-family="Inter,Arial,sans-serif" font-size="10" font-weight="400" fill="#707984">Raporlar</text>
<text x="290" y="1330" font-family="Inter,Arial,sans-serif" font-size="17" font-weight="400" fill="#707984">○</text>
<text x="283" y="1347" font-family="Inter,Arial,sans-serif" font-size="10" font-weight="400" fill="#707984">Ayarlar</text>
<text x="76" y="858" font-family="Inter,Arial,sans-serif" font-size="13" font-weight="400" fill="#707984">Gün</text>
<text x="176" y="858" font-family="Inter,Arial,sans-serif" font-size="13" font-weight="400" fill="#2664d9">Hafta</text>
<text x="276" y="858" font-family="Inter,Arial,sans-serif" font-size="13" font-weight="400" fill="#707984">Ay</text>
<rect x="44" y="875" width="292" height="1" rx="0" fill="#e7e9ec"/>
<rect x="140" y="875" width="96" height="2" rx="0" fill="#2664d9"/>
<text x="44" y="910" font-family="Inter,Arial,sans-serif" font-size="20" font-weight="400" fill="#707984">‹</text>
<text x="107" y="908" font-family="Inter,Arial,sans-serif" font-size="14" font-weight="600" fill="#20252b">31 Ağu – 6 Eyl</text>
<text x="318" y="910" font-family="Inter,Arial,sans-serif" font-size="20" font-weight="400" fill="#707984">›</text>
<rect x="44" y="930" width="36" height="58" rx="4" fill="#f6f7f8"/>
<text x="51" y="949" font-family="Inter,Arial,sans-serif" font-size="10" font-weight="400" fill="#707984">Pzt</text>
<text x="56" y="976" font-family="Inter,Arial,sans-serif" font-size="14" font-weight="400" fill="#20252b">31</text>
<rect x="86" y="930" width="36" height="58" rx="4" fill="#f6f7f8"/>
<text x="93" y="949" font-family="Inter,Arial,sans-serif" font-size="10" font-weight="400" fill="#707984">Sal</text>
<text x="98" y="976" font-family="Inter,Arial,sans-serif" font-size="14" font-weight="400" fill="#20252b">1</text>
<rect x="128" y="930" width="36" height="58" rx="4" fill="#f6f7f8"/>
<text x="135" y="949" font-family="Inter,Arial,sans-serif" font-size="10" font-weight="400" fill="#707984">Çar</text>
<text x="140" y="976" font-family="Inter,Arial,sans-serif" font-size="14" font-weight="400" fill="#20252b">2</text>
<rect x="170" y="930" width="36" height="58" rx="4" fill="#f6f7f8"/>
<text x="177" y="949" font-family="Inter,Arial,sans-serif" font-size="10" font-weight="400" fill="#707984">Per</text>
<text x="182" y="976" font-family="Inter,Arial,sans-serif" font-size="14" font-weight="400" fill="#20252b">3</text>
<rect x="212" y="930" width="36" height="58" rx="4" fill="#f6f7f8"/>
<text x="219" y="949" font-family="Inter,Arial,sans-serif" font-size="10" font-weight="400" fill="#707984">Cum</text>
<text x="224" y="976" font-family="Inter,Arial,sans-serif" font-size="14" font-weight="400" fill="#20252b">4</text>
<rect x="254" y="930" width="36" height="58" rx="4" fill="#2664d9"/>
<text x="261" y="949" font-family="Inter,Arial,sans-serif" font-size="10" font-weight="400" fill="#fff">Cmt</text>
<text x="266" y="976" font-family="Inter,Arial,sans-serif" font-size="14" font-weight="400" fill="#fff">5</text>
<rect x="296" y="930" width="36" height="58" rx="4" fill="#f6f7f8"/>
<text x="303" y="949" font-family="Inter,Arial,sans-serif" font-size="10" font-weight="400" fill="#707984">Pzr</text>
<text x="308" y="976" font-family="Inter,Arial,sans-serif" font-size="14" font-weight="400" fill="#20252b">6</text>
<text x="44" y="1023" font-family="Inter,Arial,sans-serif" font-size="13" font-weight="600" fill="#20252b">5 Eylül · Bugün</text>
<rect x="44" y="1039" width="292" height="40" rx="4" fill="#fff" stroke="#d9dde2"/>
<text x="56" y="1062" font-family="Inter,Arial,sans-serif" font-size="12" font-weight="400" fill="#707984">Görevlerde ara…</text>
<rect x="44" y="1105" width="16" height="16" rx="3" fill="#fff" stroke="#aab1b9"/>
<text x="72" y="1114" font-family="Inter,Arial,sans-serif" font-size="14" font-weight="400" fill="#20252b">Limit ve süreklilik</text>
<text x="72" y="1134" font-family="Inter,Arial,sans-serif" font-size="11" font-weight="400" fill="#707984">Matematik</text>
<rect x="44" y="1151" width="292" height="1" rx="0" fill="#e7e9ec"/>
<rect x="44" y="1167" width="16" height="16" rx="3" fill="#fff" stroke="#aab1b9"/>
<text x="72" y="1176" font-family="Inter,Arial,sans-serif" font-size="14" font-weight="400" fill="#20252b">20 yeni kelime</text>
<text x="72" y="1196" font-family="Inter,Arial,sans-serif" font-size="11" font-weight="400" fill="#707984">İngilizce</text>
<rect x="44" y="1213" width="292" height="1" rx="0" fill="#e7e9ec"/>
<rect x="44" y="1229" width="16" height="16" rx="3" fill="#2664d9" stroke="#2664d9"/>
<text x="47" y="1240" font-family="Inter,Arial,sans-serif" font-size="13" font-weight="600" fill="#fff">✓</text>
<text x="72" y="1238" font-family="Inter,Arial,sans-serif" font-size="14" font-weight="400" fill="#20252b">Haftalık tekrar</text>
<text x="72" y="1258" font-family="Inter,Arial,sans-serif" font-size="11" font-weight="400" fill="#707984">Matematik</text>
<rect x="44" y="1275" width="292" height="1" rx="0" fill="#e7e9ec"/>
<rect x="380" y="745" width="320" height="610" rx="6" fill="#fff" stroke="#d9dde2"/>
<text x="396" y="768" font-family="Inter,Arial,sans-serif" font-size="11" font-weight="600" fill="#20252b">9:41</text>
<rect x="646" y="760" width="3" height="5" rx="0" fill="#707984"/>
<rect x="652" y="757" width="3" height="8" rx="0" fill="#707984"/>
<rect x="658" y="754" width="3" height="11" rx="0" fill="#707984"/>
<rect x="670" y="755" width="14" height="8" rx="0" fill="#fff" stroke="#707984"/>
<rect x="672" y="757" width="9" height="4" rx="0" fill="#707984"/>
<text x="396" y="811" font-family="Inter,Arial,sans-serif" font-size="18" font-weight="600" fill="#20252b">Raporlar</text>
<text x="664" y="811" font-family="Inter,Arial,sans-serif" font-size="20" font-weight="400" fill="#707984"></text>
<rect x="380" y="833" width="320" height="1" rx="0" fill="#e7e9ec"/>
<rect x="380" y="1301" width="320" height="1" rx="0" fill="#e7e9ec"/>
<text x="396" y="1330" font-family="Inter,Arial,sans-serif" font-size="17" font-weight="400" fill="#707984">□</text>
<text x="389" y="1347" font-family="Inter,Arial,sans-serif" font-size="10" font-weight="400" fill="#707984">Projeler</text>
<text x="457" y="1330" font-family="Inter,Arial,sans-serif" font-size="17" font-weight="400" fill="#707984">□</text>
<text x="450" y="1347" font-family="Inter,Arial,sans-serif" font-size="10" font-weight="400" fill="#707984">Takvim</text>
<text x="518" y="1330" font-family="Inter,Arial,sans-serif" font-size="17" font-weight="400" fill="#707984">○</text>
<text x="511" y="1347" font-family="Inter,Arial,sans-serif" font-size="10" font-weight="400" fill="#707984">Odak</text>
<text x="579" y="1330" font-family="Inter,Arial,sans-serif" font-size="17" font-weight="400" fill="#2664d9">≡</text>
<text x="572" y="1347" font-family="Inter,Arial,sans-serif" font-size="10" font-weight="400" fill="#2664d9">Raporlar</text>
<text x="640" y="1330" font-family="Inter,Arial,sans-serif" font-size="17" font-weight="400" fill="#707984">○</text>
<text x="633" y="1347" font-family="Inter,Arial,sans-serif" font-size="10" font-weight="400" fill="#707984">Ayarlar</text>
<rect x="394" y="845" width="292" height="40" rx="4" fill="#fff" stroke="#d9dde2"/>
<text x="406" y="868" font-family="Inter,Arial,sans-serif" font-size="12" font-weight="400" fill="#707984">Tüm projeler                       v</text>
<rect x="394" y="903" width="92" height="73" rx="6" fill="#fff" stroke="#e7e9ec"/>
<text x="403" y="924" font-family="Inter,Arial,sans-serif" font-size="11" font-weight="400" fill="#707984">Bugün</text>
<text x="403" y="953" font-family="Inter,Arial,sans-serif" font-size="18" font-weight="600" fill="#20252b">1s 20d</text>
<rect x="494" y="903" width="92" height="73" rx="6" fill="#fff" stroke="#e7e9ec"/>
<text x="503" y="924" font-family="Inter,Arial,sans-serif" font-size="11" font-weight="400" fill="#707984">Bu hafta</text>
<text x="503" y="953" font-family="Inter,Arial,sans-serif" font-size="18" font-weight="600" fill="#20252b">8s 45d</text>
<rect x="594" y="903" width="92" height="73" rx="6" fill="#fff" stroke="#e7e9ec"/>
<text x="603" y="924" font-family="Inter,Arial,sans-serif" font-size="11" font-weight="400" fill="#707984">Bu ay</text>
<text x="603" y="953" font-family="Inter,Arial,sans-serif" font-size="18" font-weight="600" fill="#20252b">24s</text>
<text x="394" y="1012" font-family="Inter,Arial,sans-serif" font-size="13" font-weight="600" fill="#20252b">Son 7 gün</text>
<rect x="404" y="1082" width="22" height="40" rx="2" fill="#c7d8f6"/>
<text x="404" y="1141" font-family="Inter,Arial,sans-serif" font-size="10" font-weight="400" fill="#707984">Pzt</text>
<rect x="445" y="1048" width="22" height="74" rx="2" fill="#c7d8f6"/>
<text x="445" y="1141" font-family="Inter,Arial,sans-serif" font-size="10" font-weight="400" fill="#707984">Sal</text>
<rect x="486" y="1076" width="22" height="46" rx="2" fill="#c7d8f6"/>
<text x="486" y="1141" font-family="Inter,Arial,sans-serif" font-size="10" font-weight="400" fill="#707984">Çar</text>
<rect x="527" y="1032" width="22" height="90" rx="2" fill="#c7d8f6"/>
<text x="527" y="1141" font-family="Inter,Arial,sans-serif" font-size="10" font-weight="400" fill="#707984">Per</text>
<rect x="568" y="1064" width="22" height="58" rx="2" fill="#c7d8f6"/>
<text x="568" y="1141" font-family="Inter,Arial,sans-serif" font-size="10" font-weight="400" fill="#707984">Cum</text>
<rect x="609" y="1038" width="22" height="84" rx="2" fill="#c7d8f6"/>
<text x="609" y="1141" font-family="Inter,Arial,sans-serif" font-size="10" font-weight="400" fill="#707984">Cmt</text>
<rect x="650" y="1074" width="22" height="48" rx="2" fill="#2664d9"/>
<text x="650" y="1141" font-family="Inter,Arial,sans-serif" font-size="10" font-weight="400" fill="#707984">Pzr</text>
<text x="394" y="1183" font-family="Inter,Arial,sans-serif" font-size="13" font-weight="600" fill="#20252b">Çalışma geçmişi</text>
<text x="394" y="1215" font-family="Inter,Arial,sans-serif" font-size="14" font-weight="600" fill="#20252b">Matematik</text>
<text x="634" y="1213" font-family="Inter,Arial,sans-serif" font-size="12" font-weight="400" fill="#20252b">45 dk</text>
<text x="394" y="1235" font-family="Inter,Arial,sans-serif" font-size="11" font-weight="400" fill="#707984">Bugün · 1 tur</text>
<rect x="394" y="1248" width="292" height="1" rx="0" fill="#e7e9ec"/>
<text x="394" y="1275" font-family="Inter,Arial,sans-serif" font-size="14" font-weight="600" fill="#20252b">İngilizce</text>
<text x="634" y="1273" font-family="Inter,Arial,sans-serif" font-size="12" font-weight="400" fill="#20252b">35 dk</text>
<text x="394" y="1295" font-family="Inter,Arial,sans-serif" font-size="11" font-weight="400" fill="#707984">Bugün · 1 tur</text>
<rect x="394" y="1308" width="292" height="1" rx="0" fill="#e7e9ec"/>
<rect x="730" y="745" width="320" height="610" rx="6" fill="#fff" stroke="#d9dde2"/>
<text x="746" y="768" font-family="Inter,Arial,sans-serif" font-size="11" font-weight="600" fill="#20252b">9:41</text>
<rect x="996" y="760" width="3" height="5" rx="0" fill="#707984"/>
<rect x="1002" y="757" width="3" height="8" rx="0" fill="#707984"/>
<rect x="1008" y="754" width="3" height="11" rx="0" fill="#707984"/>
<rect x="1020" y="755" width="14" height="8" rx="0" fill="#fff" stroke="#707984"/>
<rect x="1022" y="757" width="9" height="4" rx="0" fill="#707984"/>
<text x="746" y="811" font-family="Inter,Arial,sans-serif" font-size="18" font-weight="600" fill="#20252b">Ayarlar</text>
<text x="1014" y="811" font-family="Inter,Arial,sans-serif" font-size="20" font-weight="400" fill="#707984"></text>
<rect x="730" y="833" width="320" height="1" rx="0" fill="#e7e9ec"/>
<rect x="730" y="1301" width="320" height="1" rx="0" fill="#e7e9ec"/>
<text x="746" y="1330" font-family="Inter,Arial,sans-serif" font-size="17" font-weight="400" fill="#707984">□</text>
<text x="739" y="1347" font-family="Inter,Arial,sans-serif" font-size="10" font-weight="400" fill="#707984">Projeler</text>
<text x="807" y="1330" font-family="Inter,Arial,sans-serif" font-size="17" font-weight="400" fill="#707984">□</text>
<text x="800" y="1347" font-family="Inter,Arial,sans-serif" font-size="10" font-weight="400" fill="#707984">Takvim</text>
<text x="868" y="1330" font-family="Inter,Arial,sans-serif" font-size="17" font-weight="400" fill="#707984">○</text>
<text x="861" y="1347" font-family="Inter,Arial,sans-serif" font-size="10" font-weight="400" fill="#707984">Odak</text>
<text x="929" y="1330" font-family="Inter,Arial,sans-serif" font-size="17" font-weight="400" fill="#707984">≡</text>
<text x="922" y="1347" font-family="Inter,Arial,sans-serif" font-size="10" font-weight="400" fill="#707984">Raporlar</text>
<text x="990" y="1330" font-family="Inter,Arial,sans-serif" font-size="17" font-weight="400" fill="#2664d9">○</text>
<text x="983" y="1347" font-family="Inter,Arial,sans-serif" font-size="10" font-weight="400" fill="#2664d9">Ayarlar</text>
<text x="744" y="858" font-family="Inter,Arial,sans-serif" font-size="13" font-weight="600" fill="#20252b">Çalışma süreleri</text>
<text x="744" y="894" font-family="Inter,Arial,sans-serif" font-size="17" font-weight="400" fill="#2664d9">●</text>
<text x="772" y="891" font-family="Inter,Arial,sans-serif" font-size="14" font-weight="600" fill="#20252b">Standart</text>
<text x="772" y="912" font-family="Inter,Arial,sans-serif" font-size="10" font-weight="400" fill="#707984">25 dk odak · 5 dk tekrar · 5 dk mola</text>
<rect x="744" y="932" width="292" height="1" rx="0" fill="#e7e9ec"/>
<text x="744" y="961" font-family="Inter,Arial,sans-serif" font-size="17" font-weight="400" fill="#707984">○</text>
<text x="772" y="958" font-family="Inter,Arial,sans-serif" font-size="14" font-weight="600" fill="#20252b">Derin çalışma</text>
<text x="772" y="979" font-family="Inter,Arial,sans-serif" font-size="10" font-weight="400" fill="#707984">50 dk odak · 10 dk tekrar · 10 dk mola</text>
<rect x="744" y="999" width="292" height="1" rx="0" fill="#e7e9ec"/>
<rect x="744" y="1024" width="292" height="42" rx="4" fill="#fff" stroke="#d9dde2"/>
<text x="756" y="1049" font-family="Inter,Arial,sans-serif" font-size="13" font-weight="600" fill="#20252b">+  Önayar ekle</text>
<text x="744" y="1105" font-family="Inter,Arial,sans-serif" font-size="13" font-weight="600" fill="#20252b">Tur geçişi</text>
<text x="744" y="1142" font-family="Inter,Arial,sans-serif" font-size="17" font-weight="400" fill="#2664d9">●</text>
<text x="772" y="1140" font-family="Inter,Arial,sans-serif" font-size="13" font-weight="400" fill="#20252b">Sonraki turu elle başlat</text>
<rect x="744" y="1159" width="292" height="1" rx="0" fill="#e7e9ec"/>
<text x="744" y="1185" font-family="Inter,Arial,sans-serif" font-size="17" font-weight="400" fill="#707984">○</text>
<text x="772" y="1183" font-family="Inter,Arial,sans-serif" font-size="13" font-weight="400" fill="#20252b">Otomatik devam et</text>
<rect x="744" y="1202" width="292" height="1" rx="0" fill="#e7e9ec"/>
<text x="744" y="1222" font-family="Inter,Arial,sans-serif" font-size="13" font-weight="600" fill="#20252b">Bildirimler</text>
<text x="744" y="1247" font-family="Inter,Arial,sans-serif" font-size="13" font-weight="400" fill="#20252b">Faz sonu hatırlatmaları</text>
<text x="989" y="1246" font-family="Inter,Arial,sans-serif" font-size="12" font-weight="400" fill="#2664d9">Açık</text>
<rect x="744" y="1256" width="292" height="42" rx="4" fill="#2664d9"/>
<text x="756" y="1281" font-family="Inter,Arial,sans-serif" font-size="13" font-weight="600" fill="#fff">Kaydet</text>
<text x="30" y="1402" font-family="Inter,Arial,sans-serif" font-size="12" font-weight="400" fill="#707984">Bu çizim uygulama ekran görüntüsü değildir; uygulanan yerleşimi örnek içerikle gösterir.</text>
</svg>